<?xml version="1.0" encoding="UTF-8"?>
<svg id="Layer_2" data-name="Layer 2" xmlns="http://www.w3.org/2000/svg" xmlns:xlink="http://www.w3.org/1999/xlink" viewBox="0 0 2520.8 904.2">
  <defs>
    <clipPath id="clippath">
      <rect x="1350.8" y="213.3" width="122.9" height="514.3" style="fill: none; stroke-width: 0px;"/>
    </clipPath>
  </defs>
  <g id="Layer_1-2" data-name="Layer 1">
    <g>
      <g>
        <g id="Layer_3" data-name="Layer 3">
          <path d="m1515.1,820.7c1-1.7,3-2.6,6-2.7,2.1,0,3.7.3,4.8,1,1.1.6,2.4,1.7,4,3.3l40.6,50.7v-47.5c0-2.1.7-4,2.2-5.7s3.3-2.6,5.4-2.7c2.3,0,4.3,1,6,2.7s2.6,3.6,2.7,5.7v68.9c0,2.6-.8,4.6-2.1,5.9s-2.8,2.2-4.5,2.7c-2.1,0-3.9-.3-5.2-1-1.4-.6-2.9-1.7-4.6-3.3l-40.6-51.5v47.2c0,2.8-.8,4.9-2.2,6.4-1.4,1.4-3.2,2.1-5.6,2.2-2.2,0-4.1-.7-5.7-2.2s-2.4-3.6-2.5-6.4v-67.6c0-2.3.3-4.3,1.3-6h0Z" style="fill: #f2778a; fill-rule: evenodd; stroke-width: 0px;"/>
        </g>
        <rect x="261.1" y="818.2" width="73.8" height="84.8" style="fill: none; stroke-width: 0px;"/>
        <path d="m309.3,835.9c-1.6-1.7-3.7-2.6-6.4-2.7h-25.8v18.3h25.8c2.6,0,4.8-.8,6.4-2.5,1.5-1.6,2.2-4,2.2-7.3s-.7-4-2.2-5.7h0Zm-46.1-15.4c1.4-1.5,3.2-2.2,5.4-2.2h34.3c8.1.2,14.2,2.5,18.4,7,4.1,4.5,6.3,9.9,6.4,16.4,0,2.8-.5,5.5-1.4,8.1-1.1,2.5-2.9,5-5.4,7.3,4.9,1.9,8.4,4.6,10.7,8.1,2.2,3.6,3.3,7.7,3.3,12.2,0,7.2-2.3,13.2-7,18-4.8,4.9-11.7,7.4-20.8,7.6h-38.5c-2.2,0-4-.8-5.4-2.2s-2.1-3.2-2.1-5.4v-69.5c0-2.2.7-4,2.1-5.4h0Zm14,45.8v21.8h29.9c3.5,0,6.1-1.2,8-3.3,1.8-2.2,2.7-4.7,2.7-7.5s-.9-5.4-2.7-7.5c-1.8-2.1-4.5-3.3-8-3.5h-29.9Z" style="fill: #f2778a; fill-rule: evenodd; stroke-width: 0px;"/>
        <rect x="464.3" y="818.2" width="62.3" height="84.8" style="fill: none; stroke-width: 0px;"/>
        <g id="Layer_3-3" data-name="Layer 3-3">
          <path d="m480.5,852.6h30.9c2.8,0,4.8.9,6.2,2.4,1.4,1.6,2.1,3.4,2.1,5.6s-.7,4-2.1,5.6-3.4,2.4-6.2,2.4h-30.9v18.4h37.4c2.8,0,4.9,1,6.4,2.5s2.3,3.4,2.4,5.4c0,2.1-.7,4-2.1,5.6-1.5,1.6-3.7,2.4-6.7,2.5h-46c-2.2,0-4-.8-5.4-2.2-1.5-1.4-2.2-3.2-2.2-5.4v-69.5c0-2.2.7-4,2.2-5.4,1.4-1.5,3.2-2.2,5.4-2.2h43.9c2.9,0,5,1,6.4,2.5s2.1,3.3,2.1,5.4c0,2.1-.8,3.9-2.2,5.4-1.4,1.6-3.4,2.4-6.2,2.5h-35.3v18.4h-.1Z" style="fill: #f2778a; fill-rule: evenodd; stroke-width: 0px;"/>
        </g>
        <rect x="806.5" y="817.9" width="16.2" height="85.2" style="fill: none; stroke-width: 0px;"/>
        <g id="Layer_3-4" data-name="Layer 3-4">
          <path d="m822.8,825.5v70c0,2.5-1,4.5-2.5,5.7s-3.4,1.9-5.6,1.9-4-.6-5.6-1.9-2.4-3.2-2.5-5.7v-70c0-2.5,1-4.5,2.5-5.7s3.4-1.9,5.6-1.9,4,.6,5.6,1.9,2.4,3.2,2.5,5.7Z" style="fill: #f2778a; fill-rule: evenodd; stroke-width: 0px;"/>
        </g>
        <rect x="956" y="817.1" width="73" height="85.9" style="fill: none; stroke-width: 0px;"/>
        <g id="Layer_3-5" data-name="Layer 3-5">
          <path d="m1012.5,825.5c0-2.1.7-4,2.2-5.7s3.3-2.6,5.4-2.7c2.3,0,4.3,1,6,2.7s2.6,3.6,2.7,5.7v68.9c0,2.6-.8,4.6-2.1,5.9s-2.8,2.2-4.5,2.7c-2.1,0-3.9-.3-5.2-1-1.4-.6-2.9-1.7-4.6-3.3l-40.6-51.5v47.2c0,2.8-.8,4.9-2.2,6.4-1.4,1.4-3.2,2.1-5.6,2.2-2.2,0-4.1-.7-5.7-2.2s-2.4-3.6-2.5-6.4v-67.6c0-2.3.3-4.3,1.3-6s3-2.6,6-2.7c2.1,0,3.7.3,4.8,1,1.1.6,2.4,1.7,4,3.3l40.6,50.7v-47.5h0Z" style="fill: #f2778a; fill-rule: evenodd; stroke-width: 0px;"/>
        </g>
        <rect x="1155.5" y="817.6" width="81.3" height="86.3" style="fill: none; stroke-width: 0px;"/>
        <g id="Layer_3-6" data-name="Layer 3-6">
          <path d="m1227.6,818c2.9,0,5.2.9,7,3,1.9,2,2.2,4.8,1,8.3l-31.2,68.4c-1.1,2.6-2.5,4.5-4.5,5.6s-3.9,1.2-6,.5c-2.2-.8-4.1-2.9-5.7-6l-32.3-67.6c-1.4-3.4-1.2-6.3.6-8.6,1.8-2.3,4.1-3.6,7-3.7,3,0,5.5,1.5,7.5,4.8l25,56.9,24.6-56.9c1.8-3.1,4.1-4.6,7-4.6h0Z" style="fill: #f2778a; fill-rule: evenodd; stroke-width: 0px;"/>
        </g>
        <rect x="1364.2" y="817.9" width="16.2" height="85.2" style="fill: none; stroke-width: 0px;"/>
        <g id="Layer_3-7" data-name="Layer 3-7">
          <path d="m1380.5,825.5v70c0,2.5-1,4.5-2.5,5.7s-3.4,1.9-5.6,1.9-4-.6-5.6-1.9-2.4-3.2-2.5-5.7v-70c0-2.5,1-4.5,2.5-5.7s3.4-1.9,5.6-1.9,4,.6,5.6,1.9,2.4,3.2,2.5,5.7Z" style="fill: #f2778a; fill-rule: evenodd; stroke-width: 0px;"/>
        </g>
        <rect x="1513.9" y="817.1" width="73" height="85.9" style="fill: none; stroke-width: 0px;"/>
        <rect x="1715.8" y="816" width="75.1" height="87.8" style="fill: none; stroke-width: 0px;"/>
        <g id="Layer_3-8" data-name="Layer 3-8">
          <path d="m1786.8,827c1.7,1.6,2.6,3.5,2.7,5.7s-.6,4.2-2.2,6c-1.8,1.5-3.8,2.2-5.9,2.1s-3.9-.9-5.4-2.4c-2.4-2.5-5-4.3-7.8-5.4-2.8-1-5.9-1.4-9.4-1.3-6.3,0-11.4,1.3-15.6,4-4.1,2.5-7.2,6-9.2,10.3-2,4.2-3,8.9-3,13.8s1,10,3,14.3c2,4.5,5.1,8,9.2,10.7,4.1,2.8,9.3,4.1,15.6,4.1s13.5-2.6,19.1-7.8c2-1.4,4.1-1.9,6.2-1.4,2.2.4,3.9,1.4,5.1,2.9,1.1,1.4,1.6,3.1,1.7,5.2,0,2-1,4.1-3,6.4-4.3,3.8-9,6.4-14,7.8-5,1.3-10,1.9-15.1,1.7-9.9,0-18-2.2-24.3-6.2-6.4-3.9-11-9.2-14-15.7-3.1-6.6-4.6-13.9-4.6-21.9s1.6-15.2,4.9-21.8c3.2-6.7,8-12,14.3-15.9,6.5-4,14.4-6.1,23.7-6.2,5.3,0,10.2.8,14.6,2.5,4.6,1.7,9,4.5,13.4,8.4h0Z" style="fill: #f2778a; fill-rule: evenodd; stroke-width: 0px;"/>
        </g>
        <rect x="1921" y="817.9" width="16.2" height="85.2" style="fill: none; stroke-width: 0px;"/>
        <g id="Layer_3-9" data-name="Layer 3-9">
          <path d="m1937.2,825.5v70c0,2.5-1,4.5-2.5,5.7s-3.4,1.9-5.6,1.9-4-.6-5.6-1.9-2.4-3.2-2.5-5.7v-70c0-2.5,1-4.5,2.5-5.7s3.4-1.9,5.6-1.9,4,.6,5.6,1.9,2.4,3.2,2.5,5.7Z" style="fill: #f2778a; fill-rule: evenodd; stroke-width: 0px;"/>
        </g>
        <rect x="2070.3" y="818.2" width="73.8" height="84.8" style="fill: none; stroke-width: 0px;"/>
        <g id="Layer_3-10" data-name="Layer 3-10">
          <path d="m2136.9,841.6c0,2.8-.5,5.5-1.4,8.1-1.1,2.5-2.9,5-5.4,7.3,4.9,1.9,8.4,4.6,10.7,8.1,2.2,3.6,3.3,7.7,3.3,12.2,0,7.2-2.3,13.2-7,18-4.8,4.9-11.7,7.4-20.8,7.6h-38.5c-2.2,0-4-.8-5.4-2.2s-2.1-3.2-2.1-5.4v-69.5c0-2.2.7-4,2.1-5.4,1.4-1.5,3.2-2.2,5.4-2.2h34.3c8.1.2,14.2,2.5,18.4,7,4.1,4.5,6.3,9.9,6.4,16.4h0Zm-18.4-5.7c-1.6-1.7-3.7-2.6-6.4-2.7h-25.8v18.3h25.8c2.6,0,4.8-.8,6.4-2.5,1.5-1.6,2.2-4,2.2-7.3s-.7-4-2.2-5.7h0Zm5.7,33.9c-1.8-2.1-4.5-3.3-8-3.5h-29.9v21.8h29.9c3.5,0,6.1-1.2,8-3.3,1.8-2.2,2.7-4.7,2.7-7.5s-.9-5.4-2.7-7.5Z" style="fill: #f2778a; fill-rule: evenodd; stroke-width: 0px;"/>
        </g>
        <rect x="2273.7" y="818" width="57.3" height="84.8" style="fill: none; stroke-width: 0px;"/>
        <g id="Layer_3-11" data-name="Layer 3-11">
          <path d="m2288.7,825.5v61.4h33.2c3,0,5.2.9,6.8,2.4,1.5,1.6,2.2,3.4,2.2,5.6.1,2.1-.6,4-2.2,5.6-1.5,1.6-3.8,2.4-6.8,2.4h-40.6c-2.1,0-3.9-.7-5.4-2.1-1.4-1.3-2.1-3.1-2.2-5.4v-69.8c.1-2.1.8-3.9,2.2-5.2,1.5-1.4,3.3-2.1,5.4-2.2,2,0,3.7.8,5.1,2.2,1.4,1.4,2.1,3.1,2.2,5.2h.1Z" style="fill: #f2778a; fill-rule: evenodd; stroke-width: 0px;"/>
        </g>
        <rect x="2458.5" y="818.2" width="62.3" height="84.8" style="fill: none; stroke-width: 0px;"/>
        <g id="Layer_3-12" data-name="Layer 3-12">
          <path d="m2513.8,860.5c0,2.1-.7,4-2.1,5.6-1.4,1.6-3.4,2.4-6.2,2.4h-30.9v18.4h37.4c2.8,0,4.9,1,6.4,2.5,1.5,1.6,2.3,3.4,2.4,5.4,0,2.1-.7,4-2.1,5.6-1.5,1.6-3.7,2.4-6.7,2.5h-46c-2.2,0-4-.8-5.4-2.2-1.5-1.4-2.2-3.2-2.2-5.4v-69.5c0-2.2.7-4,2.2-5.4,1.4-1.5,3.2-2.2,5.4-2.2h43.9c2.9,0,5,1,6.4,2.5s2.1,3.3,2.1,5.4c-.1,2.1-.8,3.9-2.2,5.4-1.4,1.6-3.4,2.4-6.2,2.5h-35.3v18.4h30.9c2.8,0,4.8.9,6.2,2.4,1.4,1.6,2.1,3.4,2.1,5.6h0Z" style="fill: #f2778a; fill-rule: evenodd; stroke-width: 0px;"/>
        </g>
      </g>
      <g>
        <path d="m866.1,53.4c-33.6,22.9-81.1,39.3-142.2,48.9-13.4,29.6-37.3,46.5-71.5,50.8,26-7.8,43.9-19.6,53.8-35.5,1.3-2.1,2.7-4.8,4.2-8.1,4.4-10.3,6-21.1,4.8-32.2-1-11-2.1-19.4-3.3-25.1-1.2-5.7-3.3-11.6-6.5-17.6-.8-1.5-1.8-2.9-3.2-4.3,4,4.3,2.3,13-5.1,26.2-7.3,13.3-23.8,18.9-49.6,16.9-25.7-2-48.3-4.6-67.8-7.8l-.2.4c-19.6-3.3-34.3-5-44.2-5s-27.2,1.6-41.2,4.8c-15.2,3.3-28.9,8.1-41,14.4-29.2,15.4-43.7,35.9-43.7,61.7-24.8,15.4-42.5,35-53.1,58.6-9.9,22.4-15,44.4-15,66.1s2,34.3,6,46.8c4,12.6,10,24.7,18,36.4,8.1,11.6,13.2,20.5,15.2,26.7,2.1,6.4,3.7,15.6,5,27.7,1.3,12.2.3,22.6-3,31.3-3.4,8.7-8.8,17.1-16.1,25.1s-15.3,14.5-24,19.7c-8.6,5.1-16.2,8.4-22.8,9.9-6.7,1.3-14.1,2.1-22.1,2.3-8.2.2-15.8-.2-22.9-1.4-7-1.3-14.9-4.9-23.5-11-8.6-6.1-13-14.9-13-26.5s1-14.3,2.9-26.8c1.9-12.6,2.8-23.5,2.7-32.6,0-28.9-6.2-52.8-18.6-71.9-15-22.6-36.7-33.9-65.2-33.9s-19.7,2-35.9,5.9c-16.4,4-26.8,6.3-31.4,7.1-4.7.7-8.5.7-11.6.1-3.2-.7-5.8-2.6-7.8-5.8-1.9-3.2-2.9-7-2.9-11.6s.5-11.8,1.6-21.8c1.1-10-4.6-12.6-17.1-7.8-12.6,4.7-20.9,12.8-25,24.5-4.3,11.6-5.3,22.1-3.1,31.3s1.6,16.2-1.9,21c-3.6,4.8-7.4,8.8-11.3,12.2-3.9,3.4-7.2,7.3-10.1,11.6-2.8,4.3-3.8,10.3-3.2,17.8.7,7.4,4.4,15.2,11.1,23.5,6.8,8.2,14,12,21.6,11.6,7.6-.3,12.2-1.2,13.7-2.7,1.3-1.5,2.5-5.3,3.6-11.5,1-6.2,2.3-13,3.8-20.2,1.6-7,5.5-13.1,11.5-18.2,6.1-5,17.2-8.8,33.2-11.3,16-2.7,30.8,2.4,44.4,15.2,13.6,12.7,19,26.3,16.4,40.8-2.8,14.6-7.4,27.5-14,38.7-6.5,11.1-13,25-19.5,41.5-6.6,16.6-9.9,31.8-10,45.8-.2,13.9,1,26.2,3.8,36.9,2.9,10.7,7.9,23,15.1,36.9,7.1,13.8,19,28.6,35.5,44.3,16.5,15.6,41.5,30.1,74.9,43.5,33.4,13.2,82.2,17,146.4,11.3,37.4-6,66.8-11.3,88.2-16.1,21.5-4.8,49.7-15.4,84.8-31.8,35-16.5,53.8-51.9,56.6-106.3.7,50.3-9.1,85.8-29.6,106.5-20.5,20.6-30.1,37.5-28.8,50.5s5.1,19.9,11.6,20.7c6.5.9,11-1.6,13.5-7.3,2.5-5.7,5.8-11.7,9.8-18.1,3.9-6.3,9.7-12.6,17.3-18.9,12.6-10.2,29-18.7,49.1-25.6,20-7,37.5-16.5,52.5-28.5,14.9-11.9,26.4-26.4,34.7-43.7,8.2-17.3,11.8-37.1,10.7-59.5-.9-18-3.7-32.4-8.5-43.1,20.9,43,23,82.9,6.2,119.8,44.4-7.2,84-17.1,118.8-29.7,19.7-7.1,37.8-15.1,54.4-23.9-.2-.6-.4-1.2-.6-1.9v-.2c0-.1-.2-.3-.2-.5l-53.6-161.7-12.5-37.7v-.3c-8.2-20.3-12.1-41.1-11.9-62.6.3-24.1,8.1-44.9,23.3-62.5h-.2c.4-.5.9-1,1.3-1.5,1-1.1,2-2.2,3.1-3.3,15.9-16.2,35.5-24.1,58.7-23.7,22.1.4,40.4,8.2,54.8,23.7,2.1,2.2,4.1,4.6,6.1,7.2.3.2.6.6.8,1.1h.2c8.4,12.2,14.8,25.1,19.4,38.9,13.8,42.3,27.2,84.7,40,127,2.4-10.5,4.2-21.4,5.3-32.6,5.8-58.5,17.7-105.7,35.6-141.6,30.6-61.2,78.7-89.4,144.6-84.6-120.5-139.8-247.6-164.5-381.1-73.9Zm-467.2,185.6c-3.7-5-5.4-10.4-5.4-16.2,0-5.9,3.1-9.5,9.7-11,6.4-1.3,12.3-2.1,17.7-2.2,19.5,0,34.7,4.5,45.6,13.4,11,8.6,19,16.3,24,23,5.1,6.7,10.4,15.1,15.9,25.3-21.9-18.1-43.8-27.3-65.5-27.6-21.8-.4-33.3,0-34.7,1.2-1.3,1-3.7-.9-7.3-5.9Zm21.9,107.3c-.2-2.9-.2-5.6-.2-8.3,0-10.1,1.3-19.2,4.2-27.3,5-14.4,13.1-21.6,24.2-21.6,11,0,21.9,7.1,32.6,21.6h0c8.3,11.1,14.7,24.1,19.3,38.9-.6-1.1-1.1-2.2-1.5-3.3-5.5-11.2-14-16.7-25.2-16.7s-12.1,2.7-15.9,8.2c-3.3,4.7-5,10.5-5,17.5.2-2.3.9-4.2,2.1-5.8,1.6-2.2,3.5-3.2,5.7-3.2s4.1,1.1,5.7,3.2c1.5,2.2,2.2,4.7,2.2,7.7s-.7,5.6-2.2,7.8c-1.6,2-3.5,3-5.7,3s-4.1-1-5.7-3c-1-1.5-1.7-3.1-2-4.8,1,16.4,7.4,31.6,19.2,45.5,4.9,5.7,10,10.4,15.4,14.1,4.9,3.3,8.7,5.1,11.3,5.1s1.3-.2,2.1-.5c-5.1,11.2-10.5,16.8-22.1,16.8s-22.9-7.6-33.9-23c-10.9-15.2-18.4-33.3-22.4-54.4-1.2-6.2-1.9-12-2.2-17.5Zm111.9,249.6l-.3.3c-8.8,10.7-20.5,15.9-35,15.9-29.4-.2-50.4-15.2-63-45.2,0,0-.2-.3-.2-.5-4-9.5-5.8-19.8-5.4-30.7.2-4.5.5-8.7,1-12.5.8-5,2-9.6,3.5-13.6,2.6-6.5,5.9-11.8,9.8-15.9l.3-.3c1.1-1.2,2.1-1.9,3.2-2.1h.2,0c.3-.2.7,0,1.1.4h.2c4.2,3.2,8.8,7.3,13.7,12.4,0,.2.2.2.2.2,5.5,5.9,10.9,10.9,16.3,14.9l.2.2c8.9,6.7,20.8,13.2,35.6,19.5h.3c0,.2.2.2.2.2.5.2,1.1.4,1.6.5.6.3,1.1.3,1.5.3,9.6,1.3,16.9,5,21.9,11.3v.3h.3c2.5,3.8,3.9,7.3,4.1,10.5.2,13.1-3.6,24.4-11.2,33.9Zm512.1-185.3c-3.7-12.6-7.5-25.1-11.4-37.5l-28.9-94.6c-2.4-7.4-5.4-15.1-8.9-22.9-3.4-8-7.6-15.1-12.6-21.5-4.9-6.5-10.8-11.8-17.8-15.9h-.2c-6.9-4.2-5.5-6.3-24.3-6.3s-33.9,6.8-45.2,20.4c-10.5,12.6-16.1,27.1-16.9,43.7v18.2c.5,3.8,1.5,9,2.9,15.5,1.5,6.9,3.9,15.1,7.3,24.5l65.4,197.7c44.8-28.1,76.4-63.7,94.8-106.6-1.4-4.7-2.8-9.6-4.3-14.6Z" style="fill: #f2778a; fill-rule: evenodd; stroke-width: 0px;"/>
        <path d="m1069.5,492.4c-1.5,8.8-3.6,18.2-6.4,28.1-2.8,9.9-6.7,18.7-11.8,26.6-5.2,8-11.6,14.5-19.2,19.6-7.7,5.2-17,7.8-27.8,7.8s-19.3-3.2-28.5-9.5c-9.1-6.5-15.9-16.3-20.4-29.6l-1.2-3.6-65.4-197.7c-3.4-9.4-5.8-17.6-7.3-24.5-1.4-6.5-2.4-11.6-2.9-15.5,0-.3,0-.5-.1-.8v-13.4c0-1.4,0-2.7.1-4,.8-16.5,6.4-31.1,16.9-43.7,11.3-13.6,26.4-20.4,45.2-20.4s17.4,2.1,24.3,6.4h.2c7,4,12.9,9.3,17.8,15.8,5,6.4,9.2,13.5,12.6,21.5,3.5,7.8,6.5,15.5,8.9,22.9l28.9,94.6c3.9,12.4,7.7,24.9,11.4,37.5,1.4,5,2.9,9.9,4.3,14.6,2.1,7.1,4.1,13.8,6,20.1,3.2,10.6,6,20.1,8.4,28.5,2.5,8.5,4.6,14.7,6,18.6Z" style="fill: #f8f8f8; fill-rule: evenodd; stroke-width: 0px;"/>
        <path d="m881.7,211.9c-1,1.1-2.1,2.2-3.1,3.3v-3.3h3.1Z" style="fill: none; stroke-width: 0px;"/>
        <path d="m1069.5,492.4c-1.5,8.8-3.6,18.2-6.4,28.1-2.8,9.9-6.7,18.7-11.8,26.6-5.2,8-11.6,14.5-19.2,19.6-7.7,5.2-17,7.8-27.8,7.8s-19.3-3.2-28.5-9.5c-9.1-6.5-15.9-16.3-20.4-29.6l-1.2-3.6-65.4-197.7c-3.4-9.4-5.8-17.6-7.3-24.5-1.4-6.5-2.4-11.6-2.9-15.5v-18.2c.8-16.5,6.4-31.1,16.9-43.7,11.3-13.6,26.4-20.4,45.2-20.4s17.4,2.1,24.3,6.4h.2c7,4,12.9,9.3,17.8,15.8,5,6.4,9.2,13.5,12.6,21.5,3.5,7.8,6.5,15.5,8.9,22.9l28.9,94.6c3.9,12.4,7.7,24.9,11.4,37.5,1.4,5,2.9,9.9,4.3,14.6,2.1,7.1,4.1,13.8,6,20.1,3.2,10.6,6,20.1,8.4,28.5,2.5,8.5,4.6,14.7,6,18.6Z" style="fill: none; stroke-width: 0px;"/>
        <path d="m1102.6,211.9c-17.9,35.9-29.8,83.1-35.6,141.6-1.1,11.2-2.9,22.1-5.3,32.6-12.9-42.4-26.2-84.8-40-127-4.6-13.8-11-26.7-19.4-38.9h-.2c-.2-.5-.5-.9-.8-1.1-1.9-2.6-4-5-6.1-7.2h107.4Z" style="fill: none; stroke-width: 0px;"/>
        <path d="m1295.2,211.9v3.7c-1.1-1.3-2.2-2.5-3.3-3.7h3.3Z" style="fill: none; stroke-width: 0px;"/>
        <path d="m1295.2,275.9v455.5h-208.5c-43.4,0-74.1-26.4-91.8-79.2l-23.7-71.1c15.3,10.4,31.3,15.6,48,15.6s28.3-4.1,40.4-12.2c12.1-8.2,20.8-20.1,26.2-35.9,8.4-26.6,15.6-49.9,21.8-69.8,6.1-20,12.8-41.8,20-65.2,7.1-23.4,13.8-45.1,20-65,6.1-20,13.4-43.4,21.8-70,13.3-44.4,34.2-66.6,62.8-66.6s34.6,6.8,46,20.4v-.2c10.6,12.6,16.2,27.2,17,43.7Z" style="fill: none; stroke-width: 0px;"/>
        <g>
          <g id="Layer_3-13" data-name="Layer 3-13">
            <path d="m1295.2,275.9c-.8-16.5-6.4-31.1-16.9-43.7v.2c-11.5-13.6-26.8-20.4-46.1-20.4-28.6,0-49.5,22.2-62.8,66.6-8.4,26.6-15.7,50-21.8,70-6.2,19.9-12.9,41.6-20,65-7.2,23.4-13.9,45.2-20,65.2-6.2,19.9-13.4,43.2-21.8,69.8-5.4,15.8-14.1,27.7-26.2,35.9-12.1,8.1-23.7,12.2-40.4,12.2s-32.7-5.2-48-15.6l23.7,71.1c17.7,52.8,48.4,79.2,91.8,79.2s74-26.4,91.8-79.2l106.5-318.2c1-3.5,1.9-6.7,2.9-9.7,1-2.9,1.8-5.6,2.2-8.1,3-8.8,4.7-15.9,5.1-29.2,0-2.2,0-4.5,0-7.1s0-2.7,0-4Zm-231.7,197.9c-2.4-8.4-5.2-17.9-8.4-28.5-1.9-6.4-4-13.1-6-20.1-1.4-4.7-2.8-9.6-4.3-14.6-3.7-12.6-7.5-25.1-11.4-37.5l-28.9-94.6c-2.4-7.4-5.4-15.1-8.9-22.9-3.4-8-7.6-15.1-12.6-21.5-4.9-6.5-10.8-11.8-17.8-15.9h-.2c-6.9-4.2-5.5-6.3-24.3-6.3s-33.9,6.8-45.2,20.4c-10.5,12.6-16.1,27.1-16.9,43.7,0,1.3-.1,2.7-.1,4v13.4c0,.2,0,.5.1.8.5,3.8,1.5,9,2.9,15.5,1.5,6.9,3.9,15.1,7.3,24.5l65.4,197.7,1.2,3.6c4.5,13.3,11.3,23.1,20.4,29.6,9.2,6.3,17.7,9.5,28.5,9.5s20.1-2.6,27.8-7.8c7.6-5.1,14-11.6,19.2-19.6,5.1-7.9,9-16.7,11.8-26.6,2.8-9.9,4.9-19.3,6.4-28.1-1.4-3.9-3.5-10.1-6-18.6Z" style="fill: #f2778a; fill-rule: evenodd; stroke-width: 0px;"/>
          </g>
          <g id="Layer_3-14" data-name="Layer 3-14">
            <path d="m1638.3,385.5c7.6,4.7,13.7,10.7,18.1,18.1,4.5,7.3,7.8,16,10,25.9s3.6,19.9,4,30.2v194.6c0,23.7-5,41.8-15.4,54.1-5,6.9-11.9,11.8-20.8,14.8-8.8,3-17.2,4.5-25.1,4.5-22.2,0-38-7.1-47.4-21.2-9.3-14-14-31.4-14-52.2v-202.8c0-20.7,4.7-38.1,14-52.2,9.4-14,25.2-21,47.4-21.2,11.9.1,21.6,2.5,29.3,7.2v.2Zm183.5-3.8c18,8.7,32.8,20.4,44.4,35.1,11.7,14.8,20.2,32.4,25.6,52.6s8.1,41.9,8.1,65v119.9c0,20.8-4.7,38.2-14,52.2-9.4,14.1-25.2,21.2-47.4,21.2s-38.6-7.2-47.7-21.5c-9.2-14.3-13.8-31.6-13.7-51.8v-119.9c0-18.2-4-33.6-11.6-46.1-7.6-12.6-21.5-18.9-41.7-18.9s-18.6,2-27.5,5.9c-1.5.5-2.7,1-3.7,1.4-1,.5-2,1.1-3,1.6,1.1-12.4,1.1-25.9,0-40.4-1-14.5-3.4-28.2-7.3-41,9.9-9.9,21.5-17,34.8-21.5s26.6-6.7,39.9-6.7c25.1,0,46.7,4.3,64.7,12.9h0Z" style="fill: #f2778a; fill-rule: evenodd; stroke-width: 0px;"/>
          </g>
          <g id="Layer_3-15" data-name="Layer 3-15">
            <path d="m2180.4,369.8c28.1.5,53.8,5.7,77,15.6,15.8,6.4,26.8,15,32.9,25.9,6.1,10.8,8.5,21.5,7,32.1s-6.3,19.7-14.3,27.4c-8.2,7.6-18.4,11.4-30.9,11.4s-22.9-2-36.3-5.9c-13.3-3.9-26.8-5.9-40.6-5.9-24.3,0-42.1,7.3-53.4,21.8-11.3,14.5-18.2,32.9-20.7,55.2-1,5.9-1.1,16.1-.3,30.4.7,14.3,4.2,30.3,10.3,48,6.2,17.8,15.9,36.6,29.3,56.3,13.3,19.7,32.2,38.2,56.9,55.5-28.1,3-57.3.5-87.6-7.5-30.4-7.8-56.5-21.2-78.1-39.9-17.8-16.3-31.3-36.6-40.4-60.7-9.1-24.1-13.7-49.1-13.7-75.1s4.5-51,13.4-75.4c8.8-24.4,22.4-44.6,40.7-60.7,19.2-17.2,42.1-29.8,68.7-37.8,26.7-8.1,53.4-11.6,80-10.7h.1Zm-22.3,294.8c-4.9-11-8.8-21.7-11.8-32.1,9.3,3.9,19.2,5.9,29.6,5.9s13.8-.7,20.7-2.2c7-1.5,13.9-3,20.8-4.5,5.9-1,11.7-1.9,17.3-2.9,5.7-1.1,11.3-1.6,16.7-1.6,7.8,0,15.1,1.5,21.8,4.1,6.7,2.8,12.2,8.3,16.7,16.7,7.4,12.8,9.9,24.4,7.3,34.7-2.4,10.4-8.3,19.6-17.7,27.5-12.4,10.8-27.2,16.2-44.5,16.2s-24-3-33.6-8.9-18.1-13.5-25.3-22.6c-7.1-9.1-13.1-19.2-18.1-30.4h.1Z" style="fill: #f2778a; fill-rule: evenodd; stroke-width: 0px;"/>
          </g>
          <g id="Layer_3-16" data-name="Layer 3-16">
            <path d="m2460.9,218.9c7.4,3.7,13.7,8.6,18.9,14.8,5.1,6.2,9.1,13.2,12.1,21.2,3,7.8,4.5,16,4.5,24.3s-1.5,16.5-4.5,24.5c-3,7.8-7.2,14.7-12.6,20.7s-11.7,10.8-18.8,14.5c-7.2,3.7-15.3,5.6-24.2,5.6s-16.8-1.9-24-5.6c-7.1-3.7-13.4-8.5-18.9-14.5-5.4-5.9-9.6-12.8-12.6-20.7-3-8-4.5-16.1-4.5-24.5s1.5-16.5,4.5-24.3c3-8,7-15,12.2-21.2,5.2-6.1,11.5-11.1,18.9-14.8,7.3-3.7,15.4-5.6,24.3-5.6s17.1,1.9,24.5,5.6h.2Zm-24.5,159.5c22.3,0,38.1,6.6,47.4,19.9,9.3,13.4,14,31.1,14.2,53.3v202.9c-.1,22.2-4.8,39.9-14.2,53.3-9.3,13.3-25.1,19.9-47.4,19.9s-38-6.6-47.4-19.9c-9.3-13.4-14-31.1-14-53.3v-202.9c0-22.2,4.7-39.9,14-53.3,9.4-13.3,25.2-19.9,47.4-19.9Z" style="fill: #f2778a; fill-rule: evenodd; stroke-width: 0px;"/>
          </g>
          <g style="clip-path: url(#clippath);">
            <g id="Layer_3-17" data-name="Layer 3-17">
              <path d="m1436.6,218.9c7.4,3.7,13.7,8.6,18.8,14.8,5.3,6.2,9.4,13.2,12.2,21.2,3,7.8,4.5,16,4.5,24.3s-1.5,16.5-4.5,24.5c-3,7.8-7.2,14.7-12.6,20.7s-11.7,10.8-18.8,14.5c-7.2,3.7-15.3,5.6-24.2,5.6s-16.8-1.9-24-5.6c-7.1-3.7-13.4-8.5-18.9-14.5-5.4-5.9-9.6-12.8-12.6-20.7-3-8-4.5-16.1-4.5-24.5s1.5-16.5,4.5-24.3c3-8,7.1-15,12.2-21.2,5.2-6.1,11.5-11.1,18.9-14.8,7.3-3.7,15.4-5.6,24.3-5.6s17.1,1.9,24.5,5.6h.2Zm-24.5,159.5c22.3,0,38.1,6.6,47.4,19.9,9.3,13.4,14,31.1,14.2,53.3v202.9c0,22.2-4.8,39.9-14.2,53.3-9.3,13.3-25.1,19.9-47.4,19.9s-38-6.6-47.4-19.9c-9.3-13.4-14-31.1-14-53.3v-202.9c0-22.2,4.7-39.9,14-53.3,9.4-13.3,25.2-19.9,47.4-19.9Z" style="fill: #f2778a; fill-rule: evenodd; stroke-width: 0px;"/>
            </g>
          </g>
        </g>
        <rect x="1547.6" y="368.9" width="352.2" height="358.9" style="fill: none; stroke-width: 0px;"/>
        <rect x="1977.6" y="367.9" width="320.6" height="369.2" style="fill: none; stroke-width: 0px;"/>
        <rect x="2375" y="213.3" width="122.9" height="514.3" style="fill: none; stroke-width: 0px;"/>
      </g>
    </g>
  </g>
</svg>